<?xml version="1.0" standalone="no"?>
<!DOCTYPE svg PUBLIC "-//W3C//DTD SVG 20010904//EN"
 "http://www.w3.org/TR/2001/REC-SVG-20010904/DTD/svg10.dtd">
<svg version="1.0" xmlns="http://www.w3.org/2000/svg"
 width="800.000000pt" height="800.000000pt" viewBox="0 0 800.000000 800.000000"
 preserveAspectRatio="xMidYMid meet">

<g transform="translate(0.000000,800.000000) scale(0.100000,-0.100000)"
fill="#ffffff" stroke="none">
<path d="M3681 7621 c-172 -208 -313 -383 -311 -388 3 -16 615 -752 625 -752
10 0 622 736 626 753 1 4 -131 168 -294 365 -162 196 -303 366 -313 379 l-19
23 -314 -380z"/>
<path d="M2576 6466 c-208 -173 -377 -317 -375 -322 4 -14 743 -624 754 -623
13 0 748 611 751 624 2 8 -521 449 -725 612 l-28 22 -377 -313z"/>
<path d="M4658 6466 c-207 -171 -376 -315 -374 -321 3 -13 738 -624 751 -624
7 -1 716 579 762 623 3 2 -711 597 -747 622 -13 10 -78 -40 -392 -300z"/>
<path d="M3122 3584 c-475 -1362 -862 -2477 -860 -2479 2 -1 243 99 537 223
294 125 536 222 538 217 21 -61 654 -1530 658 -1530 4 0 139 338 301 750 163
413 299 754 304 759 6 6 233 -76 566 -203 306 -116 558 -210 560 -208 6 5
-1729 4947 -1736 4947 -3 0 -393 -1114 -868 -2476z"/>
</g>
</svg>
